<svg width="28" height="27" viewBox="0 0 28 27" fill="none" xmlns="http://www.w3.org/2000/svg">
<path d="M23.2439 23.3201C23.7734 23.834 24.5907 23.0408 24.0612 22.538L19.7448 18.3374C21.2589 16.7114 22.0958 14.5969 22.0929 12.4052C22.0929 7.5007 17.9837 3.51234 12.9306 3.51234C7.87753 3.51234 3.76831 7.5007 3.76831 12.4052C3.76831 17.3096 7.87753 21.298 12.9306 21.298C15.2097 21.298 17.3161 20.4824 18.9275 19.1306L23.2439 23.3201ZM4.9182 12.4052C4.9182 8.11516 8.52096 4.62953 12.9295 4.62953C17.3495 4.62953 20.9407 8.11516 20.9407 12.4052C20.9407 16.6952 17.3495 20.1808 12.9295 20.1808C8.52096 20.1808 4.9182 16.6952 4.9182 12.4052Z" fill="black"/>
</svg>
