<svg width="20" height="20" viewBox="0 0 20 20" fill="none" xmlns="http://www.w3.org/2000/svg">
<g clip-path="url(#clip0_1350_1548)">
<path d="M19.3005 20.0002C19.1205 20.0002 18.9405 19.9302 18.8105 19.8002L16.9505 17.9402C16.6805 17.6702 16.6805 17.2302 16.9505 16.9502C17.2205 16.6802 17.6605 16.6802 17.9405 16.9502L19.8005 18.8102C20.0705 19.0802 20.0705 19.5202 19.8005 19.8002C19.6605 19.9302 19.4805 20.0002 19.3005 20.0002Z" fill="#182026"/>
<path d="M9.5 0C4.26 0 0 4.26 0 9.5C0 14.74 4.26 19 9.5 19C14.74 19 19 14.74 19 9.5C19 4.26 14.74 0 9.5 0ZM12 10.45H7C6.59 10.45 6.25 10.11 6.25 9.7C6.25 9.29 6.59 8.95 7 8.95H12C12.41 8.95 12.75 9.29 12.75 9.7C12.75 10.11 12.41 10.45 12 10.45Z" fill="#182026"/>
</g>
<defs>
<clipPath id="clip0_1350_1548">
<rect width="20" height="20" fill="white"/>
</clipPath>
</defs>
</svg>
