<svg width="22" height="22" viewBox="0 0 22 22" fill="none" xmlns="http://www.w3.org/2000/svg">
<path d="M10.9999 8.66489C10.5503 8.66489 10.1108 8.79727 9.73692 9.0453C9.36307 9.29333 9.07169 9.64586 8.89963 10.0583C8.72757 10.4708 8.68255 10.9246 8.77027 11.3625C8.85798 11.8004 9.0745 12.2026 9.39243 12.5182C9.71036 12.8339 10.1154 13.0489 10.5564 13.136C10.9974 13.2231 11.4545 13.1784 11.8699 13.0075C12.2853 12.8367 12.6403 12.5474 12.8901 12.1762C13.1399 11.805 13.2733 11.3686 13.2733 10.9221C13.2733 10.6257 13.2144 10.3322 13.1002 10.0583C12.986 9.78446 12.8185 9.53562 12.6074 9.32602C12.3963 9.11641 12.1457 8.95015 11.8699 8.83671C11.5941 8.72327 11.2985 8.66489 10.9999 8.66489ZM20.1024 6.43496C20.0976 5.73208 19.9672 5.03562 19.7174 4.37796C19.5334 3.89671 19.2487 3.45967 18.8822 3.09568C18.5156 2.7317 18.0754 2.44903 17.5908 2.26634C16.9284 2.01829 16.227 1.88886 15.5191 1.88407C14.3366 1.82036 13.9883 1.82036 10.9999 1.82036C8.01159 1.82036 7.66325 1.82036 6.48075 1.88407C5.77286 1.88886 5.07144 2.01829 4.40909 2.26634C3.92441 2.44903 3.48425 2.7317 3.11767 3.09568C2.75109 3.45967 2.46641 3.89671 2.28242 4.37796C2.03259 5.03562 1.90224 5.73208 1.89742 6.43496C1.83325 7.60908 1.83325 7.95495 1.83325 10.9221C1.83325 13.8893 1.83325 14.2352 1.89742 15.4093C1.90729 16.1147 2.03746 16.8132 2.28242 17.4754C2.46559 17.9544 2.75004 18.389 3.11659 18.7496C3.4816 19.1158 3.92269 19.3985 4.40909 19.5779C5.07144 19.826 5.77286 19.9554 6.48075 19.9602C7.66325 20.0239 8.01159 20.0239 10.9999 20.0239C13.9883 20.0239 14.3366 20.0239 15.5191 19.9602C16.227 19.9554 16.9284 19.826 17.5908 19.5779C18.0771 19.3985 18.5182 19.1158 18.8833 18.7496C19.2498 18.389 19.5342 17.9544 19.7174 17.4754C19.967 16.8145 20.0973 16.1151 20.1024 15.4093C20.1666 14.2352 20.1666 13.8893 20.1666 10.9221C20.1666 7.95495 20.1666 7.60908 20.1024 6.43496ZM17.7741 13.7164C17.7447 14.278 17.6239 14.8313 17.4166 15.3547C17.2386 15.7913 16.9741 16.1879 16.6387 16.5209C16.3032 16.854 15.9038 17.1167 15.4641 17.2934C14.932 17.4878 14.3717 17.5954 13.8049 17.6119H8.19492C7.62817 17.5954 7.06787 17.4878 6.53575 17.2934C6.08118 17.1256 5.67067 16.8581 5.33492 16.5106C5.00278 16.1841 4.74628 15.7896 4.58325 15.3547C4.38668 14.8269 4.28131 14.2699 4.27158 13.7073V8.13699C4.28131 7.57434 4.38668 7.01736 4.58325 6.48957C4.75218 6.03821 5.02167 5.63061 5.37159 5.29723C5.70189 4.96923 6.09874 4.71481 6.53575 4.55089C7.06787 4.35648 7.62817 4.2489 8.19492 4.23233H13.8049C14.3717 4.2489 14.932 4.35648 15.4641 4.55089C15.9187 4.71862 16.3292 4.9862 16.6649 5.33364C16.9971 5.66017 17.2536 6.05462 17.4166 6.48957C17.6124 7.01791 17.7207 7.57425 17.7374 8.13699V10.9221C17.7374 12.7971 17.8016 12.9882 17.7741 13.7073V13.7164ZM16.3074 6.94465C16.1983 6.65065 16.0262 6.38366 15.8031 6.1621C15.5799 5.94053 15.311 5.76967 15.0149 5.6613C14.6084 5.52137 14.1802 5.45359 13.7499 5.46107H8.24992C7.8175 5.46526 7.38923 5.54538 6.98492 5.69771C6.69335 5.80116 6.4273 5.96504 6.20445 6.17847C5.9816 6.39189 5.80706 6.64997 5.69242 6.93555C5.5593 7.34092 5.49426 7.76527 5.49992 8.1916V13.6527C5.50901 14.0815 5.58954 14.5059 5.73825 14.9087C5.84739 15.2027 6.01947 15.4697 6.24261 15.6913C6.46576 15.9128 6.73465 16.0837 7.03075 16.1921C7.42186 16.3349 7.83343 16.4148 8.24992 16.4287H13.7499C14.1823 16.4245 14.6106 16.3444 15.0149 16.1921C15.311 16.0837 15.5799 15.9128 15.8031 15.6913C16.0262 15.4697 16.1983 15.2027 16.3074 14.9087C16.4608 14.5073 16.5415 14.082 16.5458 13.6527V8.1916C16.546 7.76181 16.4652 7.33578 16.3074 6.93555V6.94465ZM10.9999 14.399C10.5405 14.399 10.0856 14.309 9.66128 14.1342C9.23695 13.9593 8.85153 13.7031 8.5271 13.3801C8.20267 13.0571 7.94561 12.6738 7.77063 12.252C7.59566 11.8302 7.50621 11.3783 7.50742 10.9221C7.50742 10.2341 7.71302 9.5615 8.0982 8.98954C8.48337 8.41757 9.0308 7.97194 9.67118 7.70905C10.3116 7.44616 11.0161 7.37784 11.6956 7.51274C12.3751 7.64764 12.999 7.97968 13.4884 8.46684C13.9777 8.954 14.3105 9.57437 14.4446 10.2494C14.5787 10.9245 14.508 11.6238 14.2416 12.259C13.9751 12.8941 13.5249 13.4365 12.9478 13.8175C12.3708 14.1984 11.6929 14.4008 10.9999 14.399ZM14.6666 8.12788C14.4639 8.10659 14.2764 8.01158 14.1401 7.86118C14.0038 7.71077 13.9284 7.5156 13.9284 7.31328C13.9284 7.11095 14.0038 6.91578 14.1401 6.76538C14.2764 6.61497 14.4639 6.51996 14.6666 6.49867C14.8692 6.51996 15.0567 6.61497 15.193 6.76538C15.3293 6.91578 15.4047 7.11095 15.4047 7.31328C15.4047 7.5156 15.3293 7.71077 15.193 7.86118C15.0567 8.01158 14.8692 8.10659 14.6666 8.12788Z" fill="white"/>
</svg>
