<svg width="41" height="41" viewBox="0 0 41 41" fill="none" xmlns="http://www.w3.org/2000/svg">
<path d="M20.1562 16.3344C19.3324 16.3344 18.527 16.5787 17.842 17.0364C17.1569 17.4941 16.623 18.1447 16.3077 18.9059C15.9924 19.6671 15.9099 20.5046 16.0707 21.3127C16.2314 22.1207 16.6281 22.863 17.2107 23.4455C17.7933 24.0281 18.5355 24.4249 19.3436 24.5856C20.1516 24.7463 20.9892 24.6638 21.7504 24.3485C22.5115 24.0333 23.1621 23.4993 23.6198 22.8143C24.0776 22.1293 24.3219 21.3239 24.3219 20.5C24.3219 19.953 24.2141 19.4113 24.0048 18.9059C23.7954 18.4005 23.4886 17.9413 23.1018 17.5545C22.715 17.1676 22.2558 16.8608 21.7504 16.6515C21.245 16.4421 20.7033 16.3344 20.1562 16.3344ZM36.8355 12.2191C36.8267 10.922 36.5879 9.63674 36.1301 8.42305C35.7929 7.53493 35.2713 6.7284 34.5996 6.05668C33.9278 5.38496 33.1213 4.86331 32.2332 4.52617C31.0195 4.0684 29.7342 3.82954 28.4371 3.8207C26.2703 3.70312 25.632 3.70312 20.1562 3.70312C14.6805 3.70312 14.0422 3.70312 11.8754 3.8207C10.5783 3.82954 9.29299 4.0684 8.0793 4.52617C7.19118 4.86331 6.38465 5.38496 5.71293 6.05668C5.04121 6.7284 4.51956 7.53493 4.18242 8.42305C3.72465 9.63674 3.48579 10.922 3.47695 12.2191C3.35937 14.3859 3.35938 15.0242 3.35938 20.5C3.35938 25.9758 3.35937 26.6141 3.47695 28.7809C3.49503 30.0826 3.73357 31.3718 4.18242 32.5938C4.51807 33.4778 5.03928 34.2797 5.71094 34.9453C6.37978 35.6211 7.18804 36.1427 8.0793 36.4738C9.29299 36.9316 10.5783 37.1705 11.8754 37.1793C14.0422 37.2969 14.6805 37.2969 20.1562 37.2969C25.632 37.2969 26.2703 37.2969 28.4371 37.1793C29.7342 37.1705 31.0195 36.9316 32.2332 36.4738C33.1245 36.1427 33.9327 35.6211 34.6016 34.9453C35.2732 34.2797 35.7944 33.4778 36.1301 32.5938C36.5874 31.3741 36.8262 30.0834 36.8355 28.7809C36.9531 26.6141 36.9531 25.9758 36.9531 20.5C36.9531 15.0242 36.9531 14.3859 36.8355 12.2191ZM32.5691 25.6566C32.5152 26.6932 32.294 27.7142 31.9141 28.6801C31.588 29.4858 31.1032 30.2177 30.4886 30.8323C29.874 31.447 29.142 31.9317 28.3363 32.2578C27.3613 32.6166 26.3346 32.8151 25.2961 32.8457H15.0164C13.9779 32.8151 12.9512 32.6166 11.9762 32.2578C11.1432 31.9483 10.391 31.4545 9.77578 30.8133C9.16717 30.2107 8.69716 29.4827 8.39844 28.6801C8.03824 27.7061 7.84516 26.6782 7.82734 25.6398V15.3602C7.84516 14.3218 8.03824 13.2939 8.39844 12.3199C8.70797 11.487 9.20179 10.7348 9.84297 10.1195C10.4482 9.51421 11.1754 9.04469 11.9762 8.74219C12.9512 8.38342 13.9779 8.18488 15.0164 8.1543H25.2961C26.3346 8.18488 27.3613 8.38342 28.3363 8.74219C29.1693 9.05172 29.9215 9.54554 30.5367 10.1867C31.1453 10.7893 31.6153 11.5173 31.9141 12.3199C32.2728 13.295 32.4714 14.3217 32.502 15.3602V20.5C32.502 23.9602 32.6195 24.3129 32.5691 25.6398V25.6566ZM29.8816 13.1598C29.6817 12.6172 29.3663 12.1245 28.9575 11.7156C28.5486 11.3067 28.0558 10.9914 27.5133 10.7914C26.7683 10.5332 25.9837 10.4081 25.1953 10.4219H15.1172C14.3248 10.4296 13.5401 10.5775 12.7992 10.8586C12.265 11.0495 11.7775 11.3519 11.3691 11.7458C10.9608 12.1397 10.6409 12.6159 10.4309 13.143C10.1869 13.891 10.0678 14.6742 10.0781 15.4609V25.5391C10.0948 26.3305 10.2423 27.1138 10.5148 27.857C10.7148 28.3996 11.0301 28.8923 11.439 29.3012C11.8479 29.7101 12.3406 30.0254 12.8832 30.2254C13.5999 30.489 14.354 30.6364 15.1172 30.6621H25.1953C25.9877 30.6544 26.7724 30.5065 27.5133 30.2254C28.0558 30.0254 28.5486 29.7101 28.9575 29.3012C29.3663 28.8923 29.6817 28.3996 29.8816 27.857C30.1628 27.1162 30.3106 26.3314 30.3184 25.5391V15.4609C30.3188 14.6678 30.1707 13.8816 29.8816 13.143V13.1598ZM20.1562 26.9164C19.3144 26.9164 18.4809 26.7503 17.7033 26.4277C16.9258 26.105 16.2196 25.6321 15.6251 25.0361C15.0306 24.44 14.5596 23.7326 14.239 22.9542C13.9183 22.1758 13.7544 21.3418 13.7566 20.5C13.7566 19.2302 14.1334 17.989 14.8392 16.9335C15.545 15.878 16.5481 15.0556 17.7215 14.5704C18.8949 14.0853 20.1859 13.9592 21.431 14.2081C22.6761 14.4571 23.8194 15.0699 24.7161 15.9689C25.6128 16.8679 26.2225 18.0128 26.4682 19.2585C26.7139 20.5043 26.5844 21.795 26.0962 22.9671C25.608 24.1393 24.783 25.1402 23.7256 25.8432C22.6682 26.5462 21.426 26.9197 20.1562 26.9164ZM26.875 15.3434C26.5037 15.3041 26.1601 15.1287 25.9103 14.8512C25.6606 14.5736 25.5224 14.2134 25.5224 13.84C25.5224 13.4667 25.6606 13.1065 25.9103 12.8289C26.1601 12.5513 26.5037 12.376 26.875 12.3367C27.2463 12.376 27.5899 12.5513 27.8397 12.8289C28.0894 13.1065 28.2276 13.4667 28.2276 13.84C28.2276 14.2134 28.0894 14.5736 27.8397 14.8512C27.5899 15.1287 27.2463 15.3041 26.875 15.3434Z" fill="#7EB3C1"/>
</svg>
