<svg width="20" height="20" viewBox="0 0 20 20" fill="none" xmlns="http://www.w3.org/2000/svg">
<path d="M12.6971 0.244019V4.04785H12.4599C12.3297 4.04785 12.2227 4.1579 12.2227 4.29187V4.90909C11.5064 4.94737 10.7576 4.96172 9.99944 4.96172C8.08316 4.96172 6.26456 4.84689 4.87386 4.63636C3.09246 4.36842 2.75758 4.0622 2.70642 3.99522C2.75758 3.92823 3.09246 3.62201 4.87386 3.35407C6.26456 3.14354 8.08781 3.02871 9.99944 3.02871C10.7576 3.02871 11.5064 3.04785 12.2227 3.08134V2.5933C11.5018 2.55981 10.7576 2.54067 9.99944 2.54067C7.97153 2.54067 6.06921 2.66986 4.632 2.89952C2.49712 3.24402 2.2227 3.66507 2.2227 4C2.2227 4.33014 2.49712 4.75598 4.632 5.09569C6.06921 5.32536 7.97619 5.45455 9.99944 5.45455C10.7576 5.45455 11.5064 5.43541 12.2227 5.40191V5.86124C11.5018 5.91388 10.7529 5.9378 9.99944 5.9378C7.75293 5.9378 5.6413 5.71292 4.05991 5.30622C3.39944 5.13397 2.90177 4.95215 2.54363 4.77034C2.53432 4.76555 2.52502 4.76077 2.51107 4.75598C1.97153 4.47847 1.75293 4.20574 1.75293 4C1.75293 3.6555 2.35758 3.12919 4.05991 2.69378C5.6413 2.2823 7.75293 2.05742 9.99944 2.05742C10.7529 2.05742 11.5018 2.08134 12.2227 2.13397V0.244019C12.2227 0.110048 12.3297 0 12.4599 0C12.5901 0 12.6971 0.110048 12.6971 0.244019Z" fill="#182026"/>
<path d="M18.2464 3.99522C18.2464 4.20096 18.0231 4.47847 17.465 4.76077C17.2185 4.88517 16.9069 5.01435 16.5255 5.13397V4.85167C17.3906 4.62201 17.7813 4.35407 17.7813 3.99043C17.7813 3.62679 17.3906 3.35885 16.5255 3.12919V3.63158C17.1162 3.79904 17.265 3.94258 17.2975 3.98565C17.265 4.02871 17.1115 4.17225 16.5255 4.33971V4.2823C16.5255 4.14832 16.4185 4.03828 16.2882 4.03828H16.0464V0.244019C16.0464 0.110048 16.1534 0 16.2836 0C16.4138 0 16.5208 0.110048 16.5208 0.244019V2.85646C17.7859 3.25837 18.2464 3.69856 18.2464 3.99522Z" fill="#182026"/>
<path d="M17.3386 5.354V16.6267C17.1712 16.7703 16.8921 16.8995 16.52 17.0191V5.64587C16.827 5.55496 17.0968 5.45927 17.3386 5.354Z" fill="#182026"/>
<path d="M12.6968 4.54065H16.0456V6.44017H12.6968V4.54065Z" fill="#182026"/>
<path d="M12.6968 6.92346H16.0456V8.82298H12.6968V6.92346Z" fill="#182026"/>
<path d="M12.6968 9.31116H16.0456V11.2107H12.6968V9.31116Z" fill="#182026"/>
<path d="M12.6968 11.6984H16.0456V13.5979H12.6968V11.6984Z" fill="#182026"/>
<path d="M12.6968 14.0861H16.0456V15.9856H12.6968V14.0861Z" fill="#182026"/>
<path d="M16.0456 16.4737V17.1579C15.2038 17.3684 14.0456 17.5263 12.6968 17.6172V16.4689L16.0456 16.4737Z" fill="#182026"/>
<path d="M18.247 4.84206V17.0478C18.247 17.0765 18.2377 17.1148 18.2144 17.1579C18.0842 17.4067 17.5074 17.8086 15.9446 18.1626C14.3586 18.5215 12.247 18.7177 9.99579 18.7177C7.74463 18.7177 5.633 18.5215 4.04695 18.1626C2.48881 17.8134 1.91207 17.4067 1.77719 17.1579C1.75393 17.1148 1.74463 17.0813 1.74463 17.0478V4.83728C1.87021 4.94254 2.0144 5.03824 2.17719 5.12436V16.7368C2.17719 16.799 2.20044 16.8612 2.2423 16.9043C3.13533 17.8564 6.96323 18.1913 9.96789 18.1913C10.7586 18.1913 11.6051 18.1674 12.4423 18.1196H12.4516C12.4656 18.1196 12.4749 18.1196 12.4888 18.1148C13.9074 18.0287 15.2888 17.8564 16.3028 17.5837C16.326 17.5789 16.3493 17.5741 16.3679 17.5646C17.0004 17.3875 17.4842 17.1674 17.7353 16.9043C17.7772 16.8564 17.8004 16.799 17.8004 16.7368V5.12915C17.9818 5.03824 18.126 4.94254 18.247 4.84206Z" fill="#182026"/>
<path d="M20 18.3492C20 18.5501 19.414 19.0382 17.1953 19.4449C15.2791 19.8037 12.7209 19.9999 10 19.9999C7.27907 19.9999 4.72558 19.8037 2.80465 19.4497C0.586047 19.0382 0 18.5501 0 18.3492C0 18.2056 0.316279 17.8851 1.47907 17.5549C1.83256 17.9856 2.66047 18.3444 3.94884 18.6363C5.56744 18.9999 7.71628 19.2009 10 19.2009C12.2837 19.2009 14.4326 18.9999 16.0465 18.6363C17.3349 18.3444 18.1628 17.9856 18.5163 17.5549C19.6837 17.8851 20 18.2104 20 18.3492Z" fill="#182026"/>
<path d="M10.0007 6.42099C7.71695 6.42099 5.56346 6.19132 3.94485 5.77506C3.5216 5.66501 3.07044 5.52625 2.66113 5.354V16.6315C3.41462 17.2679 6.37741 17.7081 9.98206 17.7081C10.7681 17.7081 11.5169 17.6889 12.2286 17.6507V6.34443C11.503 6.39707 10.7542 6.42099 10.0007 6.42099ZM3.57741 15.8085C3.57741 15.9425 3.47044 16.0526 3.3402 16.0526C3.20997 16.0526 3.10299 15.9425 3.10299 15.8085V7.18176C3.10299 7.04778 3.20997 6.93774 3.3402 6.93774C3.47044 6.93774 3.57741 7.04778 3.57741 7.18176V15.8085Z" fill="#182026"/>
</svg>
