<svg width="44" height="43" viewBox="0 0 44 43" fill="none" xmlns="http://www.w3.org/2000/svg">
<path d="M7.945 7.6325C5.6875 9.9115 5.6875 13.5558 5.6875 20.855V22.145C5.6875 29.4335 5.6875 33.0777 7.945 35.3675C10.224 37.625 13.8683 37.625 21.1675 37.625H22.4575C29.746 37.625 33.3902 37.625 35.68 35.3675C37.9375 33.0885 37.9375 29.4442 37.9375 22.145V20.855C37.9375 13.5665 37.9375 9.92225 35.68 7.6325C33.401 5.375 29.7567 5.375 22.4575 5.375H21.1675C13.879 5.375 10.2348 5.375 7.945 7.6325ZM11.127 15.1897H14.825C14.9433 21.3387 17.6523 23.9402 19.8022 24.4777V15.1897H23.2745V20.4895C25.3923 20.2637 27.6283 17.845 28.3808 15.179H31.8422C31.5601 16.5591 30.9963 17.8661 30.1862 19.0185C29.376 20.1708 28.3369 21.1437 27.1338 21.8762C28.4765 22.5443 29.6623 23.4895 30.6129 24.6495C31.5635 25.8095 32.2573 27.1579 32.6485 28.6057H28.8323C28.0152 26.058 25.9727 24.08 23.2745 23.8112V28.6057H22.8445C15.4915 28.6057 11.299 23.5747 11.127 15.1897Z" fill="#7EB3C1"/>
</svg>
