<svg width="24" height="24" viewBox="0 0 24 24" fill="none" xmlns="http://www.w3.org/2000/svg">
<path d="M4.26 4.22984C3 5.49283 3 7.51243 3 11.5576V12.2725C3 16.3117 3 18.3313 4.26 19.6002C5.532 20.8513 7.566 20.8513 11.64 20.8513H12.36C16.428 20.8513 18.462 20.8513 19.74 19.6002C21 18.3373 21 16.3177 21 12.2725V11.5576C21 7.51839 21 5.49879 19.74 4.22984C18.468 2.97876 16.434 2.97876 12.36 2.97876H11.64C7.572 2.97876 5.538 2.97876 4.26 4.22984ZM6.036 8.41798H8.1C8.166 11.8257 9.678 13.2674 10.878 13.5653V8.41798H12.816V11.355C13.998 11.2299 15.246 9.88949 15.666 8.41202H17.598C17.4405 9.17685 17.1259 9.9012 16.6737 10.5398C16.2215 11.1784 15.6415 11.7176 14.97 12.1236C15.7194 12.4938 16.3813 13.0176 16.9118 13.6605C17.4424 14.3033 17.8297 15.0506 18.048 15.853H15.918C15.462 14.441 14.322 13.3448 12.816 13.1959V15.853H12.576C8.472 15.853 6.132 13.0648 6.036 8.41798Z" fill="white"/>
</svg>
