<svg width="41" height="41" viewBox="0 0 41 41" fill="none" xmlns="http://www.w3.org/2000/svg">
<path d="M37.2488 11.3407C37.2348 10.62 37.1771 9.90092 37.0758 9.18731C36.9552 8.55255 36.7501 7.9368 36.4661 7.35645C35.8444 6.1291 34.8477 5.13183 33.6207 4.50938C33.0441 4.2267 32.4323 4.02222 31.8016 3.90133C31.0825 3.798 30.3578 3.7391 29.6314 3.72496C29.3241 3.7132 28.926 3.70816 28.7412 3.70816L12.1996 3.70312C12.0149 3.70312 11.6168 3.70816 11.3094 3.71992C10.5888 3.73381 9.86966 3.79158 9.15606 3.89293C8.5213 4.0136 7.90555 4.21866 7.3252 4.50266C6.09792 5.12448 5.10067 6.12114 4.47813 7.34805C4.19553 7.92471 3.99105 8.53646 3.87008 9.16715C3.76628 9.8862 3.70682 10.611 3.69203 11.3373C3.68195 11.6447 3.67523 12.0428 3.67523 12.2275L3.67188 28.7691C3.67188 28.9539 3.67691 29.352 3.68867 29.6593C3.70256 30.38 3.76033 31.0991 3.86168 31.8127C3.98237 32.4474 4.18743 33.0632 4.47141 33.6436C5.09323 34.8708 6.08989 35.8681 7.3168 36.4906C7.89347 36.7732 8.50522 36.9777 9.1359 37.0987C9.85497 37.202 10.5797 37.2609 11.3061 37.275C11.6134 37.2868 12.0115 37.2918 12.1963 37.2918L28.7379 37.2952C28.9226 37.2952 29.3207 37.2902 29.6281 37.2784C30.3487 37.2645 31.0678 37.2067 31.7815 37.1054C32.4162 36.9846 33.0319 36.7796 33.6123 36.4957C34.8402 35.8741 35.8381 34.8774 36.4611 33.6503C36.7437 33.0736 36.9482 32.4619 37.0691 31.8312C37.173 31.1121 37.2324 30.3874 37.2472 29.661C37.2572 29.3536 37.264 28.9555 37.264 28.7708L37.2656 12.2309C37.2656 12.0461 37.2606 11.648 37.2488 11.3407ZM20.8332 32.1856H20.8282C18.8288 32.1852 16.8614 31.6839 15.1055 30.7276L8.75629 32.3922L10.4561 26.1891C9.14002 23.9053 8.61414 21.251 8.96003 18.6379C9.30593 16.0247 10.5043 13.5987 12.3693 11.7359C14.2342 9.87318 16.6617 8.67772 19.2752 8.33494C21.8888 7.99216 24.5424 8.52119 26.8247 9.84002C29.107 11.1589 30.8904 13.1938 31.8984 15.6293C32.9065 18.0649 33.0829 20.765 32.4002 23.311C31.7176 25.857 30.214 28.1066 28.1227 29.7112C26.0314 31.3157 23.4692 32.1855 20.8332 32.1856Z" fill="#7EB3C1"/>
<path d="M20.8383 10.2556C19.0597 10.2551 17.3133 10.7311 15.781 11.6341C14.2486 12.5371 12.9862 13.8342 12.1249 15.3904C11.2636 16.9466 10.835 18.7051 10.8836 20.4831C10.9322 22.2611 11.4562 23.9936 12.4012 25.5004L12.6381 25.8767L11.6319 29.5485L15.3995 28.5608L15.7623 28.7758C17.296 29.6841 19.0457 30.1633 20.8282 30.1632H20.8333C23.4734 30.1637 26.0056 29.1153 27.8728 27.2488C29.7399 25.3822 30.7892 22.8504 30.7896 20.2103C30.7901 17.5701 29.7417 15.0379 27.8751 13.1707C26.0086 11.3036 23.4768 10.2544 20.8366 10.2539L20.8383 10.2556ZM26.6903 24.4825C26.4702 24.8461 26.1771 25.1602 25.8297 25.4051C25.4822 25.6499 25.0878 25.8202 24.6713 25.9052C24.0425 26.0131 23.3973 25.9728 22.7867 25.7877C22.2077 25.6072 21.6387 25.3964 21.0819 25.1561C19.0154 24.119 17.254 22.5626 15.9706 20.6394C15.2704 19.7491 14.8454 18.6738 14.7478 17.5454C14.7397 17.0797 14.8287 16.6173 15.0092 16.1879C15.1896 15.7584 15.4576 15.3713 15.7959 15.0511C15.8959 14.937 16.0184 14.8449 16.1557 14.7804C16.293 14.716 16.4421 14.6806 16.5937 14.6765C16.7919 14.6765 16.9918 14.6765 17.1665 14.6866C17.3513 14.695 17.5965 14.6161 17.8384 15.2006C18.0903 15.7986 18.6883 17.2716 18.7622 17.4211C18.8096 17.4995 18.8368 17.5885 18.8412 17.68C18.8456 17.7715 18.8271 17.8626 18.7874 17.9452C18.712 18.1249 18.6114 18.2929 18.4884 18.4441C18.3372 18.6188 18.1743 18.8338 18.0399 18.9681C17.8888 19.1176 17.7342 19.2789 17.9072 19.5779C18.3566 20.3472 18.9176 21.0457 19.5718 21.6506C20.2817 22.2817 21.0962 22.7842 21.9788 23.1354C22.2778 23.2866 22.4525 23.2597 22.6272 23.0598C22.8019 22.86 23.3746 22.1864 23.5745 21.8874C23.7744 21.5884 23.9726 21.6388 24.2464 21.7379C24.5202 21.837 25.9933 22.561 26.2922 22.7122C26.5912 22.8633 26.7911 22.9355 26.865 23.0598C26.9469 23.541 26.8862 24.0355 26.6903 24.4825Z" fill="#7EB3C1"/>
</svg>
