<svg width="22" height="22" viewBox="0 0 22 22" fill="none" xmlns="http://www.w3.org/2000/svg">
<path d="M20.1574 5.95893C20.1498 5.56844 20.1183 5.17878 20.063 4.79209C19.9971 4.44813 19.8852 4.11447 19.7303 3.79999C19.391 3.13493 18.847 2.59453 18.1774 2.25724C17.8627 2.10407 17.5289 1.99327 17.1847 1.92776C16.7922 1.87177 16.3967 1.83985 16.0003 1.83219C15.8326 1.82582 15.6153 1.82309 15.5145 1.82309L6.48717 1.82036C6.38634 1.82036 6.16909 1.82309 6.00134 1.82946C5.60806 1.83698 5.21561 1.86829 4.82617 1.92321C4.47976 1.9886 4.14372 2.09971 3.827 2.2536C3.15723 2.59055 2.613 3.13061 2.27325 3.79544C2.11903 4.10792 2.00744 4.43941 1.94142 4.78116C1.88477 5.1708 1.85232 5.56352 1.84425 5.95711C1.83875 6.12368 1.83509 6.33939 1.83509 6.43951L1.83325 15.4029C1.83325 15.503 1.836 15.7188 1.84242 15.8853C1.85 16.2758 1.88153 16.6655 1.93684 17.0522C2.0027 17.3961 2.11461 17.7298 2.26959 18.0443C2.60894 18.7093 3.15285 19.2497 3.82242 19.587C4.13713 19.7401 4.47098 19.8509 4.81517 19.9165C5.20759 19.9725 5.60312 20.0044 5.9995 20.0121C6.16725 20.0184 6.3845 20.0212 6.48534 20.0212L15.5127 20.023C15.6135 20.023 15.8308 20.0203 15.9985 20.0139C16.3918 20.0063 16.7842 19.975 17.1737 19.9201C17.5201 19.8547 17.8561 19.7436 18.1728 19.5897C18.8429 19.253 19.3875 18.7129 19.7275 18.0479C19.8817 17.7354 19.9933 17.4039 20.0593 17.0622C20.116 16.6726 20.1485 16.2798 20.1565 15.8862C20.162 15.7197 20.1657 15.504 20.1657 15.4038L20.1666 6.44133C20.1666 6.34121 20.1638 6.1255 20.1574 5.95893ZM11.1988 17.2542H11.1961C10.1049 17.254 9.03124 16.9824 8.073 16.4642L4.608 17.3662L5.53567 14.0049C4.81742 12.7673 4.53043 11.3291 4.71919 9.91309C4.90796 8.49711 5.56194 7.18251 6.57973 6.17313C7.59752 5.16374 8.92227 4.51596 10.3486 4.33021C11.7749 4.14447 13.2231 4.43114 14.4686 5.14578C15.7141 5.86041 16.6874 6.96309 17.2375 8.28285C17.7877 9.60261 17.8839 11.0657 17.5114 12.4453C17.1388 13.8249 16.3183 15.044 15.177 15.9134C14.0357 16.7829 12.6374 17.2542 11.1988 17.2542Z" fill="white"/>
<path d="M11.2018 5.37095C10.2311 5.37067 9.27807 5.6286 8.4418 6.11792C7.60553 6.60724 6.91656 7.31008 6.44654 8.15335C5.97651 8.99662 5.7426 9.94953 5.76912 10.913C5.79564 11.8764 6.08163 12.8152 6.59735 13.6317L6.72659 13.8356L6.17751 15.8252L8.2336 15.2901L8.4316 15.4066C9.2686 15.8988 10.2235 16.1584 11.1963 16.1584H11.199C12.6398 16.1586 14.0217 15.5905 15.0407 14.5791C16.0597 13.5677 16.6323 12.1957 16.6326 10.7651C16.6328 9.33449 16.0607 7.96237 15.042 6.9506C14.0234 5.93883 12.6417 5.37028 11.2008 5.37004L11.2018 5.37095ZM14.3954 13.0802C14.2753 13.2772 14.1154 13.4474 13.9257 13.5801C13.7361 13.7127 13.5209 13.805 13.2936 13.8511C12.9504 13.9095 12.5983 13.8877 12.2651 13.7874C11.9491 13.6896 11.6385 13.5754 11.3347 13.4451C10.2069 12.8832 9.24569 12.0398 8.54526 10.9977C8.16317 10.5152 7.93124 9.93256 7.87793 9.32112C7.87353 9.06874 7.92211 8.81822 8.02059 8.58551C8.11907 8.3528 8.26529 8.14301 8.44993 7.96951C8.50449 7.9077 8.57134 7.85776 8.64627 7.82284C8.7212 7.78791 8.8026 7.76874 8.88534 7.76654C8.99351 7.76654 9.1026 7.76654 9.19793 7.772C9.29876 7.77655 9.4326 7.73377 9.5646 8.05051C9.7021 8.37454 10.0284 9.17276 10.0688 9.25377C10.0947 9.29623 10.1095 9.34444 10.1119 9.39402C10.1143 9.44361 10.1042 9.493 10.0825 9.53774C10.0414 9.63512 9.98644 9.72615 9.91935 9.80806C9.83685 9.90272 9.74793 10.0192 9.6746 10.092C9.5921 10.173 9.50776 10.2604 9.60218 10.4224C9.84741 10.8393 10.1535 11.2178 10.5106 11.5456C10.898 11.8876 11.3425 12.1599 11.8242 12.3502C11.9873 12.4321 12.0827 12.4175 12.178 12.3092C12.2733 12.2009 12.5859 11.8359 12.695 11.6739C12.8041 11.5119 12.9123 11.5392 13.0617 11.5929C13.2111 11.6466 14.015 12.0389 14.1782 12.1208C14.3413 12.2027 14.4504 12.2419 14.4908 12.3092C14.5355 12.5699 14.5023 12.8379 14.3954 13.0802Z" fill="white"/>
</svg>
