<svg width="15" height="10" viewBox="0 0 15 10" fill="none" xmlns="http://www.w3.org/2000/svg">
<path fill-rule="evenodd" clip-rule="evenodd" d="M13.4958 3.54344C13.4786 3.42121 13.46 3.29912 13.4397 3.17721L13.3948 2.90626C13.2367 1.95369 12.3824 1.25277 11.3795 1.25277L5.68354 1.25277C5.47229 0.529938 4.78193 0 3.96289 0H2.35482C1.31427 0 0.437812 0.747821 0.313749 1.7415L0.122537 3.27302C-0.0828241 4.91787 -0.0298241 6.58307 0.27976 8.21275C0.445381 9.08461 1.20349 9.73813 2.12261 9.80138L3.18504 9.87449C5.61706 10.0418 8.0584 10.0418 10.4904 9.87449L11.6398 9.7954C12.2072 9.75635 12.7096 9.47911 13.0332 9.06177C13.4638 8.66447 13.8027 8.17919 14.0219 7.63693L14.8987 5.46845C15.2732 4.54224 14.5628 3.54344 13.5296 3.54344H13.4958ZM2.35482 1.01241C1.84706 1.01241 1.41938 1.37732 1.35884 1.86221L1.16763 3.39373C0.974851 4.93779 1.0246 6.50096 1.31522 8.03078C1.39453 8.4483 1.75758 8.76126 2.19773 8.79155L2.25808 8.7957L3.89458 4.72949C4.18228 4.01465 4.89726 3.54344 5.69422 3.54344H12.433C12.4226 3.4745 12.4117 3.40561 12.4003 3.33678L12.3553 3.06584C12.2788 2.60458 11.8651 2.26518 11.3795 2.26518H5.26539C4.95171 2.26518 4.69744 2.02061 4.69744 1.71892C4.69744 1.32872 4.36857 1.01241 3.96289 1.01241H2.35482Z" fill="#182026"/>
</svg>
